<?xml version="1.0" standalone="no"?><!DOCTYPE svg PUBLIC "-//W3C//DTD SVG 1.1//EN" "http://www.w3.org/Graphics/SVG/1.1/DTD/svg11.dtd"><svg class="icon" height="512" viewBox="0 0 1024 1024" version="1.1" xmlns="http://www.w3.org/2000/svg"><path d="M512 512m-448 0a448 448 0 1 0 896 0 448 448 0 1 0-896 0Z" fill="#CACACA" /><path d="M353.9 389.4c-0.4-2.3-24.5-26.4-26.8-7.9s-0.8 83.7 4.5 85.2 24.9 2.3 27.2-2.6c2.2-4.9-4.9-74.7-4.9-74.7zM678.2 375.7s29.4 13 32.1 20.9c2.6 7.9-13.6 71.3-13.6 71.3s-24.5 9.8-24.9-3.4c-0.4-13.2 6.4-88.8 6.4-88.8z" fill="#DADADA" /><path d="M162.6 792.4C244.7 894.6 370.7 960 512 960s267.3-65.4 349.4-167.6v-13.7c0-64.9-52.6-117.5-117.5-117.5H280.1c-64.9 0-117.5 52.6-117.5 117.5v13.7z" fill="#5E5E5E" /><path d="M665.2 689.6c-10.7-3.9-17.5-18.3-21.1-28.5H376.3c-16.7 20.5-36.7 47.4-36.4 57.3 0.6 17 0 126.7 0 126.7l43.6 42.4s-8.5 23.8-17.1 48.2C412 951.5 461 960 512 960c56.4 0 110.3-10.4 160-29.4l-27.8-40.2s27.7-19.8 36.2-32.2c8.5-12.4 13-24.3 13.6-53.7 0.6-29.4-2.9-92.8-2.9-92.8s-9-15.9-25.9-22.1z" fill="#8D8D8D" /><path d="M437.8 579.3s-9.6 48.6-31.1 69-1.7 48.1 2.8 66.7c4.5 18.7 15.3 52.6 15.3 52.6v183.8c28.2 5.6 57.4 8.5 87.2 8.5 32 0 63.3-3.4 93.4-9.8l-0.2-1 2.2-183.9 28.3-109.7-46.9-73-151-3.2z" fill="#DBDBDB" /><path d="M412.9 618.9l-40.2 33.9 35.1 120.5s12.4 4.5 18.7-12.4c6.2-17 32.8-64.5 32.8-64.5l-46.4-77.5zM623.9 618.9l-56 63.9s-6.8 13.6 0 19.8c6.8 6.2 52 76.9 52 76.9l36.8-105.2s5.1-14.1-6.8-30-26-25.4-26-25.4z" fill="#F8F8F8" /><path d="M472.8 726.9s3.2 15.7 16.1 19.5l-4.5 212.7c9.1 0.6 18.3 0.8 27.5 0.8 13.6 0 27.1-0.6 40.5-1.8l-5-211.9c2.8-2.8 6.3-6.6 8.5-10.9 4.5-8.5 6.2-58.3 6.2-58.3H470l2.8 49.9z" fill="#5E5E5E" /><path d="M533.6 611.6h-39.3c-82.7 0-149.8-67.1-149.8-149.8V289.6c0-82.7 67.1-149.8 149.8-149.8h39.3c82.7 0 149.8 67.1 149.8 149.8v172.2c-0.1 82.7-67.1 149.8-149.8 149.8z" fill="#F8F8F8" /><path d="M533.6 139.8h-39.3c-82.7 0-149.8 67.1-149.8 149.8v150h7.9s9.3-66.2 9.3-67 7.4-14.1 7.4-15.6c0-1.4 2.5-24 2.5-24h21.8l12.4-28.6s11.3 1.4 11.3-1.4 3.4-35.9 3.4-35.9l48.1 52 165.2-0.6 17.5 39 20.4 26-1.7 52.3 13.4 2.5V289.6c-0.1-82.7-67.1-149.8-149.8-149.8z" fill="#5E5E5E" /></svg>